<svg xmlns="http://www.w3.org/2000/svg" xmlns:xlink="http://www.w3.org/1999/xlink" version="1.1" id="Layer_2" x="0px" y="0px" viewBox="0 0 1080 1080" style="enable-background:new 0 0 1080 1080;" xml:space="preserve">
<style type="text/css">
	.st0{fill:#F7F7F7;}
	.st1{fill:#F2F2F2;}
	.st2{fill:#B6E7FF;}
	.st3{fill:#FFFFFF;}
	.st4{fill:#5AB8FF;}
	.st5{fill:#2A94F4;}
	.st6{fill:#FFE3CA;}
	.st7{fill:#0D4972;}
	.st8{fill:#FFBE55;}
	.st9{fill:#0E538C;}
	.st10{fill:#85DDFF;}
	.st11{fill:#41AAF7;}
	.st12{fill:#CCE9FF;}
</style>
<g>
	<path class="st0" d="M692.5,214.4c26.1,0.3,52.2,5.9,75.8,17c16.8,7.9,32,18.2,44.2,31.3c24.4,26.2,34,64.5,17.4,93.3   c-13.9,24-44.4,41.2-44.8,68.9c-0.4,32.2,40.4,53.7,76,60.3c35.6,6.7,75.6,7.9,102.3,30.9c23,19.8,29.1,51.4,21.5,77.9   s-27,48.5-48.6,67.4c-54,47.2-123.3,78.3-194.4,102.7c-150.1,51.7-313,76.9-477.1,73.9c-41-0.8-86.7-5.2-115.4-32.8   c-29-27.8-29.9-72-10.9-103.8s53.8-53.3,90.3-68.9s75.5-26.5,111-43.7c26.8-13,54.2-37.7,42.9-64.3c-8.1-18.9-31.8-28-52.7-35.7   c-29.5-10.8-58.9-23.5-83-42.5s-42.6-45.5-44.5-73.6c-1.7-26.2,11.3-51.2,30.5-69.9c19.2-18.8,44.2-32,69.8-43.3   C403.8,214.8,622.1,213.5,692.5,214.4z"/>
</g>
<path class="st1" d="M1029.1,1004.6H62.9c-5.2,0-9.5-4.3-9.5-9.5v-36.2c0-5.2,4.3-9.5,9.5-9.5h966.2c5.2,0,9.5,4.3,9.5,9.5v36.2  C1038.6,1000.3,1034.3,1004.6,1029.1,1004.6z"/>
<g>
	<g id="Settings">
		<g>
			<g>
				<path class="st2" d="M740,416.5c-6.1,0-12.2-0.4-18.2-1.1c-5.4-0.6-9.3-5.3-9-10.7c0.8-14-7.3-27-20.2-32.4      c-12.3-5.1-28.3-1.5-37.2,8.4c-3.6,4-9.7,4.5-13.9,1.1c-9.2-7.4-17.6-15.9-24.9-25.2c-3.3-4.2-2.8-10.2,1.1-13.8      c10.2-9.4,13.6-24.2,8.4-36.9c-5.2-12.6-17.5-20.8-30.7-20.5c-5.1,0-11.2-3.7-11.8-9c-1.3-12-1.3-24,0.1-35.8      c0.7-5.5,5-9.2,10.6-9c14.6,0,27.4-7.9,32.5-20.2c5.4-12.9,2-27.8-8.4-37.3c-4-3.6-4.5-9.7-1.1-13.9c7.5-9.3,16-17.8,25.5-25.2      c4.2-3.3,10.2-2.7,13.8,1.2c8.9,9.8,24.8,13.4,37,8.4c12.7-5.2,20.9-18,20.4-31.9c-0.2-5.3,3.8-9.9,9.1-10.5      c11.7-1.3,23.7-1.3,35.5,0.1c5.4,0.6,9.3,5.3,9,10.7c-0.8,14,7.3,27,20.2,32.4c12.3,5.1,28.3,1.5,37.2-8.4      c3.6-4,9.7-4.5,13.9-1.1c9.2,7.4,17.6,15.8,25,25.2c3.3,4.2,2.8,10.2-1.1,13.8c-10.2,9.4-13.6,24.2-8.4,36.9      c5.1,12.4,17.2,20.5,30.9,20.5c5,0,10.9,3.7,11.5,9v0c1.3,12,1.3,24-0.1,35.8c-0.6,5.4-5.5,9.4-10.7,9l-1.8,0      c-13.2,0-25.4,8.1-30.5,20.2c-5.4,12.9-2,27.8,8.4,37.3c4,3.6,4.5,9.7,1.1,13.9c-7.5,9.3-16.1,17.8-25.5,25.2      c-4.3,3.3-10.2,2.8-13.8-1.2c-8.9-9.8-24.8-13.4-37-8.4c-12.7,5.2-20.9,18-20.4,31.9c0.2,5.3-3.8,9.9-9.1,10.5      C751.5,416.2,745.7,416.5,740,416.5z M680.6,367c4.5,0,9,0.8,13.1,2.5c14,5.9,22.9,20.1,22,35.4c-0.2,3.8,2.6,7.1,6.3,7.5      c11.5,1.3,23.3,1.4,34.8,0.1c3.7-0.4,6.5-3.7,6.4-7.4c-0.5-15.1,8.4-29,22.3-34.7c13.3-5.4,30.6-1.5,40.3,9.2      c2.6,2.8,6.8,3.1,9.8,0.8c9.2-7.2,17.6-15.6,25-24.7c2.4-3,2-7.3-0.8-9.8c-11.3-10.3-15-26.6-9.1-40.6      c5.5-13.2,18.9-22.1,33.3-22.1l2,0.1c3.8,0.3,7.2-2.5,7.6-6.3c1.4-11.6,1.4-23.4,0.1-35.2v0c-0.4-3.6-4.9-6.4-8.5-6.4      c-14.9,0-28.2-8.8-33.7-22.3c-5.7-13.9-2-30.1,9.1-40.3c2.8-2.5,3.1-6.8,0.8-9.7c-7.2-9.2-15.5-17.5-24.5-24.7      c-3-2.4-7.3-2-9.8,0.8c-9.8,10.8-27.2,14.7-40.6,9.1c-14-5.9-22.9-20.1-22-35.4c0.2-3.8-2.6-7.1-6.3-7.5      c-11.6-1.3-23.3-1.4-34.8-0.1c-3.7,0.4-6.5,3.7-6.4,7.4c0.5,15.1-8.4,29.1-22.3,34.7c-13.3,5.4-30.6,1.5-40.3-9.2      c-2.5-2.8-6.8-3.1-9.8-0.8c-9.3,7.3-17.7,15.6-25,24.7c-2.4,3-2,7.3,0.8,9.8c11.3,10.3,15,26.6,9.1,40.6      c-5.6,13.4-19.5,22-35.4,22c-4-0.1-7.1,2.4-7.5,6.3c-1.4,11.6-1.4,23.4-0.1,35.2c0.4,3.6,5,6.3,8.7,6.3      c14.4-0.4,27.9,8.6,33.5,22.3c5.7,13.9,2,30.1-9.1,40.3c-2.8,2.5-3.1,6.8-0.8,9.7c7.2,9.1,15.4,17.4,24.5,24.7      c3,2.4,7.3,2,9.8-0.8C659.9,371.2,670.4,367,680.6,367z M740.4,312.8c-29.5,0-53.6-24-53.6-53.6s24-53.6,53.6-53.6      s53.6,24,53.6,53.6S769.9,312.8,740.4,312.8z M740.4,208.6c-27.9,0-50.6,22.7-50.6,50.6s22.7,50.6,50.6,50.6      c27.9,0,50.6-22.7,50.6-50.6S768.3,208.6,740.4,208.6z"/>
			</g>
		</g>
	</g>
	<g>
		<g>
			<path class="st2" d="M714.7,977H399.5c-26.5,0-47.9-21.5-47.9-47.9V280.8c0-26.5,21.5-47.9,47.9-47.9h315.2     c26.5,0,47.9,21.5,47.9,47.9v648.3C762.6,955.5,741.2,977,714.7,977z"/>
			<path class="st3" d="M710.7,954.3H403.5c-16.1,0-29.2-13.1-29.2-29.2v-639c0-16.1,13.1-29.2,29.2-29.2h307.3     c16.1,0,29.2,13.1,29.2,29.2v639C740,941.2,726.9,954.3,710.7,954.3z"/>
			<path class="st2" d="M440.2,254.1l19.1,24.4c7.6,9.7,18.9,15.3,30.7,15.3h132.8c11.8,0,23.1-5.6,30.7-15.3l19.1-24.4H440.2z"/>
		</g>
		<path class="st4" d="M401.2,339.1H713c5.5,0,10,4.5,10,10v175.7c0,5.5-4.5,10-10,10H401.2c-5.5,0-10-4.5-10-10V349.1    C391.3,343.6,395.7,339.1,401.2,339.1z"/>
		<path class="st1" d="M715.1,573H399.1c-4.3,0-7.8-3.5-7.8-7.8l0,0c0-4.3,3.5-7.8,7.8-7.8h316.1c4.3,0,7.8,3.5,7.8,7.8l0,0    C722.9,569.5,719.4,573,715.1,573z"/>
		<path class="st1" d="M715.1,605.6H399.1c-4.3,0-7.8-3.5-7.8-7.8v0c0-4.3,3.5-7.8,7.8-7.8h316.1c4.3,0,7.8,3.5,7.8,7.8v0    C722.9,602.1,719.4,605.6,715.1,605.6z"/>
		<path class="st1" d="M613.1,638.2h-214c-4.3,0-7.8-3.5-7.8-7.8l0,0c0-4.3,3.5-7.8,7.8-7.8h214c4.3,0,7.8,3.5,7.8,7.8l0,0    C620.9,634.7,617.4,638.2,613.1,638.2z"/>
		<path class="st1" d="M539.4,831H399.1c-4.3,0-7.8-3.5-7.8-7.8l0,0c0-4.3,3.5-7.8,7.8-7.8h140.3c4.3,0,7.8,3.5,7.8,7.8l0,0    C547.2,827.5,543.7,831,539.4,831z"/>
		<path class="st1" d="M539.4,863.6H399.1c-4.3,0-7.8-3.5-7.8-7.8l0,0c0-4.3,3.5-7.8,7.8-7.8h140.3c4.3,0,7.8,3.5,7.8,7.8l0,0    C547.2,860.1,543.7,863.6,539.4,863.6z"/>
		<path class="st1" d="M461.4,896.2h-62.4c-4.3,0-7.8-3.5-7.8-7.8v0c0-4.3,3.5-7.8,7.8-7.8h62.4c4.3,0,7.8,3.5,7.8,7.8v0    C469.2,892.7,465.7,896.2,461.4,896.2z"/>
		<rect x="391.3" y="675.1" class="st5" width="42.6" height="117.6"/>
		<rect x="447.9" y="711.9" class="st4" width="42.6" height="80.8"/>
		<rect x="504.5" y="743.1" class="st2" width="42.6" height="49.6"/>
		<path class="st2" d="M704.8,896.2H599.3c-10,0-18.1-8.2-18.1-18.1V693.2c0-10,8.2-18.1,18.1-18.1h105.5c10,0,18.1,8.2,18.1,18.1    v184.9C722.9,888,714.8,896.2,704.8,896.2z"/>
	</g>
	<g>
		<path class="st6" d="M404.5,508.9v-9.2c0,0-3.3-9.2-6.7-15.9c2.5,0.8,6.7,6.7,6.7,6.7s1.7-14.2,0-17.6    c10.9,9.2,10.9,12.6,10.9,12.6l-4.2,15.1l0.8,11.7L404.5,508.9z"/>
		<path class="st6" d="M247.1,724l-5,9.2c0,0-10,6.7-10,10s0,7.5,0,7.5l7.5,9.2c0,0,6.7-18.4,7.5-17.6c0.8,4.2,0.8,9.2,2.5,10    c0.8-5-1.7-17.6,1.7-21.8C254.7,726.5,247.1,724,247.1,724z"/>
		
			<rect x="245.4" y="923.4" transform="matrix(0.9969 7.825331e-02 -7.825331e-02 0.9969 74.3089 -16.9126)" class="st6" width="15.1" height="32.6"/>
		<path class="st7" d="M244.2,955.4c-6.4,6.2-10.9,10.9-11.2,14.2c5.5,4.6,23.6,9.4,32.3,5.1c1.8-11.6-6.1-18.1-6.1-18.1    L244.2,955.4z"/>
		<rect x="335" y="923.2" class="st6" width="15.1" height="32.6"/>
		<path class="st8" d="M340.5,688.5c10,31,48.5,157.4,15.9,248.6c-13.8,9.6-28.9,0.4-28.9,0.4s-33.9-134.3-24.7-188.7    c9.2-54.4,10.5-60.3,10.5-60.3H340.5z"/>
		<rect x="311.2" y="564.6" class="st6" width="12.1" height="25.9"/>
		<path class="st6" d="M337.9,558.2c0,12.3-4.7,22.3-14.7,22.3c-9.9,0-21.3-10-21.3-22.3c0-12.3,8.1-22.3,18-22.3    C329.8,535.9,337.9,545.9,337.9,558.2z"/>
		<path class="st9" d="M334.2,536.2c-2.7,10.7-4.7,35.3-19.3,44c-9.3,4.7-36.6-20-23.3-42C304.9,516.3,332.9,530.2,334.2,536.2z"/>
		<path class="st5" d="M311.2,590.5c-15.1,1.7-36.8,12.6-36.8,12.6s-25.1,95.4-30.1,124.7c7.5,5,10,7.5,10,7.5l28.5-93.7l10.9,46.9    h46.9l10.9-60.3c0,0,70.3-34.3,64.4-118.9c-13.4-5.9-13.4-5.9-13.4-5.9s3.3,89.6-61.9,87.9C340.5,591.4,319.5,587.2,311.2,590.5z"/>
		<path class="st8" d="M293.7,688.5c-29.3,51.1-66.1,180.8-52.7,251.9c13.8,11.3,25.1,0,25.1,0s50.2-109.6,49.4-188.3    c3.3-46.9,0-63.6,0-63.6H293.7z"/>
		<path class="st7" d="M335,955.9c-5.9,6.7-10,11.7-10,15.1c5.9,4.2,24.3,7.5,32.6,2.5c0.8-11.7-7.5-17.6-7.5-17.6H335z"/>
		<g>
			<path class="st9" d="M308.5,529.7c-5.4-14.8-24.5-22.7-38.7-15.9c-14.2,6.7-20.3,26.5-12.3,40c2,3.4,4.9,6.7,4.8,10.7     c-0.1,5.8-6.2,9.4-11.5,12c-6.6,3.3-13.3,7-17.7,12.8c-4.5,5.8-6.2,14.4-2.3,20.6c2.4,3.9,6.6,6.3,10.9,8.1     c9,3.7,19.3,5.1,28.4,1.6c9.1-3.5,16.3-12.6,15.6-22.3c-0.7-9.2-7.8-17.4-6.4-26.5c1-6.3,5.9-11.2,11-15     c5.1-3.8,10.8-7,14.7-12.1c3.8-5.1,5.3-12.8,1.1-17.6"/>
		</g>
	</g>
	<g>
		<path class="st8" d="M204.4,293.6h209.3c25,0,45.4,22.6,45.4,50.2v0c0,25.2-17,46.2-39,49.7l-0.6,22.1l-21.9-21.5H204.4    c-25,0-45.4-22.6-45.4-50.2v0C159,316.1,179.4,293.6,204.4,293.6z"/>
		<g>
			<circle class="st3" cx="362.9" cy="345.3" r="15.8"/>
			<circle class="st3" cx="309" cy="345.3" r="15.8"/>
			<circle class="st3" cx="255.1" cy="345.3" r="15.8"/>
		</g>
	</g>
	<g>
		<circle class="st4" cx="751.9" cy="688.9" r="70.2"/>
		<g>
			<path class="st3" d="M752.1,695.3c11.9,0,21.6-11.7,21.6-26.2c0-14.5-3.2-26.2-21.6-26.2s-21.6,11.7-21.6,26.2     C730.5,683.5,740.2,695.3,752.1,695.3z"/>
			<path class="st3" d="M792.1,722c-8.9,12.4-23.5,20.5-40,20.5s-31-8.1-40-20.5c1.8-15,7.9-20.3,28.2-24c0,0,3.5,4.5,11.8,4.5     c8.3,0,11.8-4.5,11.8-4.5C784.1,701.6,790.2,707,792.1,722z"/>
		</g>
	</g>
</g>
<g>
	<path class="st2" d="M960.1,975.1c19.9,0,28.2-15.9,31.5-32.7c3.7-19,1-39.2,1-39.2h-65.1c0,0-0.1,0.8-0.2,2.1   C926.1,917.3,922.2,975.1,960.1,975.1z"/>
	<path class="st10" d="M927.6,903.2c0,1.4,14.6,2.6,32.5,2.6c18,0,32.5-1.2,32.5-2.6c0-1.4-14.6-2.6-32.5-2.6   C942.1,900.6,927.6,901.8,927.6,903.2z"/>
	<path class="st5" d="M872,722.8c0,0,34.3,52.2,54.9,84.1c20.6,31.9,26,38.5,28.4,48.8c2.5,10.3,4.7,48.3,4.7,48.3h1.5   c0,0-0.5-32.2-2.4-43.1c-1.8-10.5,0.1-14.3,1.6-25.3c1.5-11,3.4-28.7-7.7-40.9c-11.2-12.3-8.2-24.3-12.1-32.4   c-3.9-8.1-34.3-17.9-38.2-26.2C898.7,727.7,881.6,722.5,872,722.8z"/>
	<path class="st11" d="M872,722.8c0,0,10.8,12.3,18.1,16.4c7.4,4.2,10.8,0.5,16.4,10.5c5.6,10,5.9,14.5,11,19.6   c5.2,5.1,11.3,5.4,11.8,16.7c0.5,11.3-2.5,20.8-2.5,20.8S874.2,725.5,872,722.8z"/>
	<path class="st5" d="M957.3,903.9h-1.5c0,0-0.5-10.4-4.6-15.5c-2.7-3.3-14-7-25.3-11.4c-6.2-2.5-12.3-5.1-17-8.1   c-13.1-8.3-25.5-35-26.6-39.8c-0.4-1.7-0.5-2.7-0.5-3.4v0c0-1.3,0.7-1.5,1.8-2.8c0.5-0.6,2.1-0.4,4.1,0.2   c5.6,1.7,10.4,5.6,13.3,10.7c2.7,4.7,7.1,10.6,12.4,12c9.2,2.5,8.4,4,11.8,13.4c3.4,9.4,12,10.9,22.7,22   C958.7,892.2,957.3,903.9,957.3,903.9z"/>
	<path class="st11" d="M925.9,877c-6.2-2.5-12.3-5.1-17-8.1c-13.1-8.3-25.5-35-26.6-39.8c-0.4-1.7-0.5-2.7-0.5-3.4   c0,0.3,0.6,4.5,7.4,7.4c7.1,2.9,8.4,2.9,9.4,7.4c0.9,4.5,1.7,9.2,5.4,10.1c3.7,0.9,6-3.2,8.9,3.5c2.9,6.8,4.3,9.1,7,10   c2.7,0.9,4.7-0.5,5.3,4.8C925.6,872.1,925.8,875.1,925.9,877z"/>
	<path class="st5" d="M968.6,903.9h1.8c0,0,3.6-64.6,8.5-70.6c3.2-3.9,13.6-10.8,26.9-16.1c7.3-2.9,14.6-6.1,20.1-9.6   c15.5-9.8,30.2-41.5,31.5-47.1c0.4-2,0.6-3.2,0.6-4v0c0-1.5-0.8-1.7-2.1-3.3c-0.6-0.7-2.5-0.5-4.8,0.2c-6.7,2-12.3,6.6-15.8,12.6   c-3.2,5.6-8.4,12.6-14.7,14.2c-10.9,2.9-10,4.7-14,15.8c-4,11.1-14.2,12.9-26.9,26C966.9,835.3,968.6,903.9,968.6,903.9z"/>
	<path class="st11" d="M1005.8,817.2c7.3-2.9,14.6-6.1,20.1-9.6c15.5-9.8,30.2-41.5,31.5-47.1c0.4-2,0.6-3.2,0.6-4   c0,0.4-0.8,5.4-8.8,8.7c-8.4,3.4-10,3.4-11.1,8.7c-1.1,5.3-2,10.9-6.4,12c-4.4,1.1-7.1-3.8-10.5,4.2c-3.5,8-5.1,10.7-8.3,11.8   c-3.2,1.1-5.6-0.5-6.3,5.6C1006.1,811.4,1005.9,815,1005.8,817.2z"/>
	<g>
		<path class="st12" d="M960.1,975.1c19.9,0,28.2-15.9,31.5-32.7c-19.5-7.4-44-19.2-64.3-37C926.1,917.3,922.2,975.1,960.1,975.1z"/>
	</g>
</g>
<g>
	<path class="st2" d="M123.2,966.9c-14.1,0-20-11.3-22.4-23.2c-2.6-13.5-0.7-27.8-0.7-27.8h46.2c0,0,0.1,0.5,0.2,1.5   C147.4,925.9,150.1,966.9,123.2,966.9z"/>
	<path class="st10" d="M146.3,915.9c0,1-10.3,1.8-23.1,1.8c-12.7,0-23.1-0.8-23.1-1.8s10.3-1.8,23.1-1.8   C136,914.1,146.3,914.9,146.3,915.9z"/>
	<path class="st5" d="M65.8,787.9c0,0,24.3,37,39,59.6c14.6,22.6,18.4,27.3,20.2,34.6c1.7,7.3,3.3,34.3,3.3,34.3h1.9   c0,0,1.2-22.8-1-30.3c-2.3-7.5-1.4-10.4-0.3-18.3c1-7.8,2.4-20.3-5.5-29c-7.9-8.7-5.8-17.2-8.6-23c-2.8-5.7-24.3-12.7-27.1-18.6   C84.7,791.4,72.6,787.8,65.8,787.9z"/>
	<path class="st11" d="M65.8,787.9c0,0,7.7,8.7,12.9,11.7c5.2,3,7.7,0.3,11.7,7.5c4,7.1,4.2,10.3,7.8,13.9c3.7,3.7,8,3.8,8.4,11.8   c0.3,8-1.7,14.8-1.7,14.8S67.3,789.9,65.8,787.9z"/>
	<path class="st5" d="M122.5,916.5h-1.7c0,0-0.5-11.8-5.2-17.6c-3-3.7-15.9-7.9-28.6-12.9c-7-2.8-14-5.8-19.2-9.1   c-14.8-9.4-28.9-39.6-30.1-45c-0.4-1.9-0.6-3-0.6-3.8v0c0-1.5,0.8-1.7,2-3.1c0.6-0.7,2.4-0.5,4.6,0.2c6.4,1.9,11.8,6.3,15.1,12.1   c3.1,5.3,8,12,14,13.6c10.4,2.8,9.6,4.5,13.4,15.1c3.8,10.6,13.5,12.3,25.7,24.9C124,903.2,122.5,916.5,122.5,916.5z"/>
	<path class="st11" d="M86.9,886c-7-2.8-14-5.8-19.2-9.1c-14.8-9.4-28.9-39.6-30.1-45c-0.4-1.9-0.6-3-0.6-3.8c0,0.4,0.7,5.1,8.4,8.3   c8,3.3,9.6,3.3,10.6,8.3c1,5,1.9,10.4,6.1,11.5c4.2,1,6.8-3.7,10.1,4c3.3,7.6,4.9,10.3,7.9,11.3c3,1,5.3-0.5,6,5.4   C86.6,880.4,86.8,883.8,86.9,886z"/>
	<g>
		<path class="st12" d="M123.2,966.9c-14.1,0-20-11.3-22.4-23.2c13.8-5.2,31.2-13.6,45.6-26.3C147.4,925.9,150.1,966.9,123.2,966.9z    "/>
	</g>
</g>
</svg>