<svg xmlns="http://www.w3.org/2000/svg" xmlns:xlink="http://www.w3.org/1999/xlink" version="1.1" id="Layer_1" x="0px" y="0px" viewBox="0 0 1080 1080" style="enable-background:new 0 0 1080 1080;" xml:space="preserve">
<style type="text/css">
	.st0{fill:none;stroke:#D3D3D3;stroke-miterlimit:10;stroke-dasharray:11.8402,11.8402;}
	.st1{fill:#CAEDFF;}
	.st2{fill:#2A94F4;}
	.st3{fill:#F7F7F7;}
	.st4{fill:#1A87D8;}
	.st5{fill:none;stroke:#B4E6FC;stroke-width:2;stroke-miterlimit:10;}
	.st6{fill:#B0E1FF;}
	.st7{fill:#E2E2E2;}
	.st8{fill:#0B577C;}
	.st9{fill:#05303D;}
	.st10{fill:#FFFFFF;}
	.st11{fill:#FCD7B9;}
	.st12{fill:#1371B7;}
	.st13{fill:#FFE3CA;}
	.st14{fill:#074259;}
	.st15{fill:#FFA42C;}
	.st16{fill:#F2F2F2;}
	.st17{fill:#B4E6FC;}
	.st18{fill:#E88C1F;}
	.st19{fill:#9B9B9B;}
</style>
<g>
	<circle class="st0" cx="232.9" cy="284.9" r="131.9"/>
</g>
<path class="st1" d="M748.9,393.1h275c0,0-37.1-15.6-57.9-11.9c-12.3-9-35.1-17.9-49.3-13.4c-9.2-11.2-34.8-45.1-80.7-9.9  c-8.5-3.2-50,0.1-57.5,17.7c-12.5-3.4-55-3.4-66.6,17.5C726.9,393.1,748.9,393.1,748.9,393.1z"/>
<path class="st2" d="M874.2,924.4c27.8-57.5,113.2-154.4,170.9-169.9C1032.5,807.8,1035.5,858.9,874.2,924.4z"/>
<g>
	<path class="st3" d="M320.9,225.8c-26,11.2-51.8,24.8-69.9,46.3s-27.3,52.3-16.4,78.1c14.6,34.5,60.7,54.5,60.9,91.8   c0.2,26.7-24.9,47.2-50.1,56.9s-53.2,13.2-76.2,27.4c-34.7,21.4-50.9,62.9-57.6,102.7c-6.9,41.3-4.1,88.4,25.6,118.4   c36.9,37.3,97.8,33.1,150,25.1c69.6-10.6,139-23.1,208.3-35.5c151.9-27.3,303.9-54.6,455.8-82c16.3-2.9,33.2-6.1,46.5-15.9   c26.3-19.5,28.5-59.7,13.2-88.4c-15.3-28.7-43.5-48.2-71.6-65.1c-28.1-16.9-57.7-32.9-78.8-57.8c-21-24.9-31.5-61.9-15.6-90.2   c13.5-24.1,42.4-36.9,55.1-61.4c16.6-32.3-2.5-73.5-32.7-94.1C837.2,161.5,458.1,166.7,320.9,225.8z"/>
</g>
<path class="st4" d="M865.1,942.4c-9.5-198.6,124.8-359.5,124.8-359.5S1038.6,773.4,865.1,942.4z"/>
<g>
	<path class="st5" d="M302.6,959.6H163.1V744.1c0-5.8,4.8-10.6,10.6-10.6H292c5.8,0,10.6,4.8,10.6,10.6V959.6z"/>
	<path class="st5" d="M491,957.9H351.6V665.5c0-6.8,5.6-12.3,12.3-12.3h114.8c6.8,0,12.3,5.6,12.3,12.3V957.9z"/>
	<path class="st5" d="M679.5,957.9H540V588.5c0-7.6,6.2-13.8,13.8-13.8h111.8c7.6,0,13.8,6.2,13.8,13.8V957.9z"/>
	<path class="st5" d="M867.9,957.9H728.4V511.3c0-8.4,6.8-15.2,15.2-15.2h109.1c8.4,0,15.2,6.8,15.2,15.2V957.9z"/>
</g>
<g>
	<g>
		<g>
			<path class="st2" d="M223.5,928.3c-47.6,9.8-98.4,2.6-141.5-19.8c48.3,1.5,96.5,7.7,143.5,18.7L223.5,928.3z"/>
		</g>
		<g>
			<path class="st6" d="M207.7,943c-46-15.7-85.5-49.7-107.8-92.9c44.2,18.3,75.9,57.2,105.6,94.7L207.7,943z"/>
		</g>
		<g>
			<path class="st2" d="M199.5,934.9c-31.1-26-46.9-69-40.3-109c25.1,34.8,40.9,76.2,45.5,118.9L199.5,934.9z"/>
		</g>
	</g>
</g>
<g>
	<polygon class="st7" points="860,217.7 855.6,213.1 858.4,210.4 863.1,216.6  "/>
	<polyline class="st7" points="630.4,357.6 630.2,358.3 628.8,363 637.7,367.1 638.7,361.6  "/>
	<path class="st8" d="M805.9,466.5c3.7,2.7,33.9,8.6,33.9,8.6l-2.7,7.5h-46.7v-16.1H805.9z"/>
	<path class="st8" d="M649.8,543.1c3.7,2.7,33.9,8.6,33.9,8.6l-2.7,7.5h-46.7v-16.1H649.8z"/>
	<path class="st9" d="M743.3,364.3c0,0,79-14.3,86.7-6.1s-20.4,110.9-20.4,110.9h-22.8l12.2-82.4L717,399.1L653.5,544h-20.4   l53.8-181.8L743.3,364.3z"/>
	<path class="st8" d="M724,253.6l-26.3,4.7c0,0-71,30.4-68.9,101.5c7.4,4.5,11.5,5.2,11.5,5.2s-2.3-68.5,62.5-73.5   c-14.1,52.3-19.6,75.6-19.6,75.6l60-2.8l23.3-88.1c27.5-20.6,57.7-32,94.3-58c0-2.1-4.5-6.9-4.5-6.9s-26.5,11.3-102.6,40.2   C745.9,253.2,734.3,252.7,724,253.6z"/>
	<polygon class="st10" points="724,253.6 735.9,299.6 742,258.2  "/>
	<polygon class="st11" points="735.9,241.5 742,258.2 735.9,261.9 724,253.6 719.2,234.7  "/>
	<g>
		<path class="st12" d="M711.5,210.8c-7.7,1.9-13,26.1,9.2,32.8C717.1,216.8,711.5,210.8,711.5,210.8z"/>
		<path class="st13" d="M743.9,222c3.5,10.9,5.1,23.7-3.8,26.6s-25-5.3-28.5-16.3c-3.5-10.9,0.9-22.1,9.8-25S740.4,211,743.9,222z"/>
		<path class="st12" d="M725,222c9.7-2.1,21.1-9,18.7-14.1c-0.6-1.3-1.6-2.4-2.7-3.4c-4.1-3.7-9.7-5-15.1-3.9    c-6.8,1.4-16.3,4.4-17.1,10.8C707.5,221.4,718.8,223.9,725,222z"/>
		<path class="st12" d="M718,219c-0.5,3.3-2.4,9.8-2.4,9.8l1.4,8.8l-3.7,1.8c0,0-8.3-18.7-3.8-22.6S718,219,718,219z"/>
		
			<ellipse transform="matrix(0.8383 -0.5452 0.5452 0.8383 -12.5996 428.1005)" class="st13" cx="715.4" cy="235.3" rx="3.8" ry="4.5"/>
	</g>
	<path class="st14" d="M724,253.6l-6.1,9.6l6.1,7.7l-4.8,12c0,0,17,18.1,16.7,16.8S724,253.6,724,253.6z"/>
	<path class="st14" d="M742.6,252.8l6,6.3l-5.3,9.1l5.3,13.2c0,0-13,19.4-12.7,18.2S742.6,252.8,742.6,252.8z"/>
	<circle class="st14" cx="735.9" cy="311" r="1.7"/>
	<circle class="st14" cx="733" cy="325.5" r="1.7"/>
	<polygon class="st7" points="735.9,261.9 727.9,268.4 726.5,263.4 724,253.6  "/>
	<polygon class="st7" points="735.9,261.9 740.4,268.4 741.2,263.9 742,258.2  "/>
	<polygon class="st15" points="738.6,265.8 737.5,270.3 733.7,270.3 730.6,266.2 735.9,261.9  "/>
	<polyline class="st15" points="733.7,270.3 731.3,281.6 735.9,299.6 738.6,281.3 737.5,270.3  "/>
	<path class="st11" d="M628.8,363c-3.2,2.3-2.8,13.9-2.8,13.9l7.8,9.1c0,0,1.2-10.9,1.9-9.7c0.7,1.2,2.4,5.6,3,5.4   c0.6-3.5-1-14.7-1-14.7L628.8,363z"/>
</g>
<path class="st16" d="M1024.1,1004H55.9c-6.3,0-11.4-5.1-11.4-11.4v-56.8c0-6.3,5.1-11.4,11.4-11.4h968.2c6.3,0,11.4,5.1,11.4,11.4  v56.8C1035.5,998.9,1030.4,1004,1024.1,1004z"/>
<g>
	<path class="st17" d="M327.1,944.2H187.6V728.6c0-5.8,4.8-10.6,10.6-10.6h118.2c5.8,0,10.6,4.8,10.6,10.6V944.2z"/>
	<path class="st17" d="M515.5,942.4H376V650.1c0-6.8,5.6-12.3,12.3-12.3h114.8c6.8,0,12.3,5.6,12.3,12.3V942.4z"/>
	<path class="st17" d="M704,942.4H564.5V573.1c0-7.6,6.2-13.8,13.8-13.8h111.8c7.6,0,13.8,6.2,13.8,13.8V942.4z"/>
	<path class="st17" d="M892.4,942.4H752.9V495.9c0-8.4,6.8-15.2,15.2-15.2h109.1c8.4,0,15.2,6.8,15.2,15.2V942.4z"/>
</g>
<g>
	<polygon class="st18" points="923.7,117.5 1015,117.5 976.6,143.8 996.7,166.5 918.5,170.2  "/>
	<polygon class="st19" points="878.8,105.9 866.1,239.3 863.1,239 877.5,105.8  "/>
	<polygon class="st15" points="878.8,105.9 970,105.9 951.8,157.1 873.5,160.9  "/>
</g>
<path class="st11" d="M871,215l-0.1-12.4c-0.3-1.4-2.1-1.9-3-0.8l-8.7,9.6l4,5.2L871,215z"/>
<path class="st6" d="M99.9,284.9h464.5c0,0-62.7-26.4-97.9-20.1c-20.8-15.1-59.3-30.3-83.2-22.6c-15.5-19-58.9-76.1-136.2-16.7  c-14.3-5.4-84.4,0.2-97.1,29.8c-21.1-5.8-92.9-5.8-112.5,29.6C62.8,284.9,99.9,284.9,99.9,284.9z"/>
</svg>